STARTFONT 2.1
FONT -Monotype-Bembo-Bold-R-Normal--14-140-72-72-P-69-ISO8859-1
SIZE 14 72 72
FONTBOUNDINGBOX 19 16 -4 -3

STARTPROPERTIES 22
FOUNDRY "Monotype"
FAMILY_NAME "Bembo"
WEIGHT_NAME "Bold"
SLANT "R"
SETWIDTH_NAME "Normal"
ADD_STYLE_NAME ""
PIXEL_SIZE 14
POINT_SIZE 140
RESOLUTION_X 72
RESOLUTION_Y 72
SPACING "P"
AVERAGE_WIDTH 69
CHARSET_REGISTRY "ISO8859"
CHARSET_ENCODING "1"
FULL_NAME "Bembo-Bold"
COPYRIGHT "Copyright (c) 1991 The Monotype Corporation plc."
WEIGHT 10
X_HEIGHT 6
QUAD_WIDTH 9
DEFAULT_CHAR 32
FONT_DESCENT 4
FONT_ASCENT 12
ENDPROPERTIES

CHARS 190

STARTCHAR space
ENCODING 32
SWIDTH 278 0
DWIDTH 4 0
BBX 1 1 0 0
BITMAP
00
ENDCHAR

STARTCHAR exclam
ENCODING 33
SWIDTH 313 0
DWIDTH 4 0
BBX 2 9 1 0
BITMAP
C0
C0
C0
80
80
80
00
C0
C0
ENDCHAR

STARTCHAR quotedbl
ENCODING 34
SWIDTH 552 0
DWIDTH 8 0
BBX 5 5 1 4
BITMAP
D8
D8
D8
D8
90
ENDCHAR

STARTCHAR numbersign
ENCODING 35
SWIDTH 668 0
DWIDTH 9 0
BBX 8 11 0 -2
BITMAP
33
33
33
FF
FF
66
FF
FF
64
4C
CC
ENDCHAR

STARTCHAR dollar
ENCODING 36
SWIDTH 479 0
DWIDTH 7 0
BBX 7 10 0 -1
BITMAP
7C
D6
D0
70
38
16
D6
D6
7C
10
ENDCHAR

STARTCHAR percent
ENCODING 37
SWIDTH 896 0
DWIDTH 13 0
BBX 10 9 1 0
BITMAP
4100
A200
A600
A400
4C80
0940
1940
1140
2080
ENDCHAR

STARTCHAR ampersand
ENCODING 38
SWIDTH 750 0
DWIDTH 11 0
BBX 10 9 0 0
BITMAP
3C00
6400
7400
3DC0
6F80
C700
C200
E700
7BC0
ENDCHAR

STARTCHAR quoteright
ENCODING 39
SWIDTH 313 0
DWIDTH 4 0
BBX 3 4 1 5
BITMAP
E0
E0
20
C0
ENDCHAR

STARTCHAR parenleft
ENCODING 40
SWIDTH 354 0
DWIDTH 5 0
BBX 4 12 1 -3
BITMAP
10
20
60
40
C0
C0
C0
C0
C0
60
20
10
ENDCHAR

STARTCHAR parenright
ENCODING 41
SWIDTH 344 0
DWIDTH 5 0
BBX 4 12 0 -3
BITMAP
80
40
60
20
30
30
30
30
30
60
40
80
ENDCHAR

STARTCHAR asterisk
ENCODING 42
SWIDTH 521 0
DWIDTH 7 0
BBX 6 6 0 3
BITMAP
10
10
FC
38
38
48
ENDCHAR

STARTCHAR plus
ENCODING 43
SWIDTH 667 0
DWIDTH 9 0
BBX 7 7 1 2
BITMAP
10
10
10
FE
10
10
10
ENDCHAR

STARTCHAR comma
ENCODING 44
SWIDTH 313 0
DWIDTH 4 0
BBX 3 4 1 -2
BITMAP
E0
E0
20
C0
ENDCHAR

STARTCHAR minus
ENCODING 45
SWIDTH 667 0
DWIDTH 9 0
BBX 7 1 1 4
BITMAP
FE
ENDCHAR

STARTCHAR period
ENCODING 46
SWIDTH 313 0
DWIDTH 4 0
BBX 2 2 1 0
BITMAP
C0
C0
ENDCHAR

STARTCHAR slash
ENCODING 47
SWIDTH 531 0
DWIDTH 5 0
BBX 4 12 0 -3
BITMAP
10
10
30
30
20
20
60
60
40
40
C0
C0
ENDCHAR

STARTCHAR zero
ENCODING 48
SWIDTH 500 0
DWIDTH 7 0
BBX 6 9 0 0
BITMAP
38
48
CC
CC
CC
CC
CC
48
30
ENDCHAR

STARTCHAR one
ENCODING 49
SWIDTH 500 0
DWIDTH 7 0
BBX 4 9 1 0
BITMAP
20
60
E0
60
60
60
60
60
F0
ENDCHAR

STARTCHAR two
ENCODING 50
SWIDTH 500 0
DWIDTH 7 0
BBX 6 9 0 0
BITMAP
78
8C
0C
0C
18
10
24
7C
FC
ENDCHAR

STARTCHAR three
ENCODING 51
SWIDTH 500 0
DWIDTH 7 0
BBX 5 9 1 0
BITMAP
70
B0
30
30
78
18
18
90
F0
ENDCHAR

STARTCHAR four
ENCODING 52
SWIDTH 500 0
DWIDTH 7 0
BBX 6 9 0 0
BITMAP
18
18
38
78
58
D8
FC
18
18
ENDCHAR

STARTCHAR five
ENCODING 53
SWIDTH 500 0
DWIDTH 7 0
BBX 6 9 0 0
BITMAP
F8
F8
80
F0
FC
1C
0C
CC
F0
ENDCHAR

STARTCHAR six
ENCODING 54
SWIDTH 500 0
DWIDTH 7 0
BBX 6 9 1 0
BITMAP
18
60
40
F8
CC
CC
CC
4C
78
ENDCHAR

STARTCHAR seven
ENCODING 55
SWIDTH 500 0
DWIDTH 7 0
BBX 6 9 0 0
BITMAP
FC
FC
88
08
18
10
30
60
60
ENDCHAR

STARTCHAR eight
ENCODING 56
SWIDTH 500 0
DWIDTH 7 0
BBX 6 9 0 0
BITMAP
78
CC
CC
E8
38
5C
CC
CC
78
ENDCHAR

STARTCHAR nine
ENCODING 57
SWIDTH 500 0
DWIDTH 7 0
BBX 6 9 0 0
BITMAP
78
C8
CC
CC
7C
0C
08
10
60
ENDCHAR

STARTCHAR colon
ENCODING 58
SWIDTH 313 0
DWIDTH 4 0
BBX 2 6 1 0
BITMAP
C0
C0
00
00
C0
C0
ENDCHAR

STARTCHAR semicolon
ENCODING 59
SWIDTH 313 0
DWIDTH 4 0
BBX 3 8 1 -2
BITMAP
60
60
00
00
E0
E0
20
40
ENDCHAR

STARTCHAR less
ENCODING 60
SWIDTH 667 0
DWIDTH 9 0
BBX 7 8 1 1
BITMAP
02
0E
38
C0
C0
38
0E
02
ENDCHAR

STARTCHAR equal
ENCODING 61
SWIDTH 667 0
DWIDTH 9 0
BBX 7 4 1 2
BITMAP
FE
00
00
FE
ENDCHAR

STARTCHAR greater
ENCODING 62
SWIDTH 667 0
DWIDTH 9 0
BBX 7 8 1 1
BITMAP
80
E0
38
06
06
38
E0
80
ENDCHAR

STARTCHAR question
ENCODING 63
SWIDTH 365 0
DWIDTH 5 0
BBX 3 9 1 0
BITMAP
C0
E0
20
E0
E0
80
00
C0
C0
ENDCHAR

STARTCHAR at
ENCODING 64
SWIDTH 927 0
DWIDTH 13 0
BBX 12 12 1 -3
BITMAP
0F80
3060
63B0
4590
8990
9910
9B30
9F30
9BD0
4020
30C0
1F80
ENDCHAR

STARTCHAR A
ENCODING 65
SWIDTH 740 0
DWIDTH 10 0
BBX 10 9 0 0
BITMAP
0C00
1E00
1600
1600
3F00
2300
6180
4180
F3C0
ENDCHAR

STARTCHAR B
ENCODING 66
SWIDTH 698 0
DWIDTH 10 0
BBX 8 9 0 0
BITMAP
FE
63
63
62
7E
63
63
63
FE
ENDCHAR

STARTCHAR C
ENCODING 67
SWIDTH 740 0
DWIDTH 10 0
BBX 9 9 1 0
BITMAP
1F80
6180
4080
C000
C000
C000
6080
7180
1F80
ENDCHAR

STARTCHAR D
ENCODING 68
SWIDTH 823 0
DWIDTH 12 0
BBX 10 9 1 0
BITMAP
FE00
6380
61C0
60C0
60C0
60C0
61C0
6380
FE00
ENDCHAR

STARTCHAR E
ENCODING 69
SWIDTH 646 0
DWIDTH 9 0
BBX 8 9 0 0
BITMAP
FF
61
60
62
7E
62
60
61
FF
ENDCHAR

STARTCHAR F
ENCODING 70
SWIDTH 594 0
DWIDTH 8 0
BBX 7 9 1 0
BITMAP
FE
62
60
62
7E
62
60
60
F0
ENDCHAR

STARTCHAR G
ENCODING 71
SWIDTH 781 0
DWIDTH 11 0
BBX 10 9 1 0
BITMAP
1F80
7180
E080
C000
C3C0
C180
E180
7180
1F00
ENDCHAR

STARTCHAR H
ENCODING 72
SWIDTH 833 0
DWIDTH 12 0
BBX 11 9 0 0
BITMAP
F1E0
60C0
60C0
60C0
7FC0
60C0
60C0
60C0
F1E0
ENDCHAR

STARTCHAR I
ENCODING 73
SWIDTH 365 0
DWIDTH 5 0
BBX 4 9 1 0
BITMAP
F0
60
60
60
60
60
60
60
F0
ENDCHAR

STARTCHAR J
ENCODING 74
SWIDTH 344 0
DWIDTH 5 0
BBX 6 12 -1 -3
BITMAP
3C
18
18
18
18
18
18
18
18
18
D0
E0
ENDCHAR

STARTCHAR K
ENCODING 75
SWIDTH 740 0
DWIDTH 10 0
BBX 10 9 0 0
BITMAP
F780
6200
6400
6C00
7C00
6E00
6700
6380
F7C0
ENDCHAR

STARTCHAR L
ENCODING 76
SWIDTH 604 0
DWIDTH 8 0
BBX 8 9 0 0
BITMAP
F0
60
60
60
60
60
60
61
FE
ENDCHAR

STARTCHAR M
ENCODING 77
SWIDTH 927 0
DWIDTH 13 0
BBX 12 9 0 0
BITMAP
70E0
70E0
79E0
5960
5960
4E60
4E60
4460
E4F0
ENDCHAR

STARTCHAR N
ENCODING 78
SWIDTH 813 0
DWIDTH 11 0
BBX 10 9 1 0
BITMAP
E1C0
7080
7880
5C80
4E80
4780
4380
4180
E080
ENDCHAR

STARTCHAR O
ENCODING 79
SWIDTH 844 0
DWIDTH 12 0
BBX 10 9 1 0
BITMAP
1F00
6380
41C0
C0C0
C0C0
C0C0
E0C0
7180
3E00
ENDCHAR

STARTCHAR P
ENCODING 80
SWIDTH 646 0
DWIDTH 9 0
BBX 8 9 0 0
BITMAP
FE
63
63
63
7E
60
60
60
F0
ENDCHAR

STARTCHAR Q
ENCODING 81
SWIDTH 844 0
DWIDTH 12 0
BBX 10 12 1 -3
BITMAP
1F00
6380
41C0
C0C0
C0C0
C0C0
E080
7180
3E00
0E00
0780
01C0
ENDCHAR

STARTCHAR R
ENCODING 82
SWIDTH 771 0
DWIDTH 11 0
BBX 10 9 1 0
BITMAP
FE00
6300
6300
6300
7C00
6E00
6700
6380
F1C0
ENDCHAR

STARTCHAR S
ENCODING 83
SWIDTH 563 0
DWIDTH 8 0
BBX 6 9 1 0
BITMAP
7C
C4
C0
F0
78
1C
8C
8C
F8
ENDCHAR

STARTCHAR T
ENCODING 84
SWIDTH 729 0
DWIDTH 10 0
BBX 10 9 0 0
BITMAP
FFC0
8C40
0C00
0C00
0C00
0C00
0C00
0C00
1E00
ENDCHAR

STARTCHAR U
ENCODING 85
SWIDTH 771 0
DWIDTH 11 0
BBX 10 9 0 0
BITMAP
F1C0
6080
6080
6080
6080
6080
6080
7100
3E00
ENDCHAR

STARTCHAR V
ENCODING 86
SWIDTH 750 0
DWIDTH 11 0
BBX 10 9 0 0
BITMAP
F9C0
6080
3080
3180
1900
1B00
0E00
0E00
0400
ENDCHAR

STARTCHAR W
ENCODING 87
SWIDTH 1000 0
DWIDTH 14 0
BBX 14 9 0 0
BITMAP
FFDC
6648
3798
3390
1B90
19A0
0FA0
0EE0
04C0
ENDCHAR

STARTCHAR X
ENCODING 88
SWIDTH 802 0
DWIDTH 11 0
BBX 11 9 0 0
BITMAP
F9E0
3080
1B00
1E00
0E00
1F00
3380
61C0
F3E0
ENDCHAR

STARTCHAR Y
ENCODING 89
SWIDTH 750 0
DWIDTH 11 0
BBX 10 9 0 0
BITMAP
F1C0
6080
3100
3B00
1E00
0C00
0C00
0C00
1E00
ENDCHAR

STARTCHAR Z
ENCODING 90
SWIDTH 750 0
DWIDTH 11 0
BBX 9 9 1 0
BITMAP
FF80
8780
0700
0E00
1C00
3800
7080
E080
FF80
ENDCHAR

STARTCHAR bracketleft
ENCODING 91
SWIDTH 365 0
DWIDTH 5 0
BBX 3 12 2 -3
BITMAP
E0
C0
C0
C0
C0
C0
C0
C0
C0
C0
C0
E0
ENDCHAR

STARTCHAR backslash
ENCODING 92
SWIDTH 531 0
DWIDTH 7 0
BBX 7 9 0 0
BITMAP
C0
60
60
30
30
18
1C
0C
0E
ENDCHAR

STARTCHAR bracketright
ENCODING 93
SWIDTH 365 0
DWIDTH 5 0
BBX 3 12 0 -3
BITMAP
E0
60
60
60
60
60
60
60
60
60
60
E0
ENDCHAR

STARTCHAR asciicircum
ENCODING 94
SWIDTH 583 0
DWIDTH 8 0
BBX 6 5 1 4
BITMAP
30
30
58
48
8C
ENDCHAR

STARTCHAR underscore
ENCODING 95
SWIDTH 500 0
DWIDTH 7 0
BBX 7 1 0 -3
BITMAP
FE
ENDCHAR

STARTCHAR quoteleft
ENCODING 96
SWIDTH 313 0
DWIDTH 4 0
BBX 3 4 1 5
BITMAP
60
80
E0
E0
ENDCHAR

STARTCHAR a
ENCODING 97
SWIDTH 479 0
DWIDTH 7 0
BBX 6 6 1 0
BITMAP
70
D8
18
78
D8
FC
ENDCHAR

STARTCHAR b
ENCODING 98
SWIDTH 573 0
DWIDTH 8 0
BBX 8 9 0 0
BITMAP
E0
60
60
7E
67
63
63
62
7C
ENDCHAR

STARTCHAR c
ENCODING 99
SWIDTH 490 0
DWIDTH 7 0
BBX 6 6 1 0
BITMAP
3C
4C
C0
C0
E4
78
ENDCHAR

STARTCHAR d
ENCODING 100
SWIDTH 573 0
DWIDTH 8 0
BBX 8 9 0 0
BITMAP
0E
06
06
3E
46
C6
C6
E6
7F
ENDCHAR

STARTCHAR e
ENCODING 101
SWIDTH 479 0
DWIDTH 7 0
BBX 6 6 0 0
BITMAP
38
CC
FC
C0
E4
78
ENDCHAR

STARTCHAR f
ENCODING 102
SWIDTH 323 0
DWIDTH 5 0
BBX 7 9 0 0
BITMAP
1E
26
60
F0
60
60
60
60
F0
ENDCHAR

STARTCHAR g
ENCODING 103
SWIDTH 552 0
DWIDTH 8 0
BBX 7 9 1 -3
BITMAP
72
CE
CC
78
C0
FC
7E
C6
7C
ENDCHAR

STARTCHAR h
ENCODING 104
SWIDTH 563 0
DWIDTH 8 0
BBX 8 9 0 0
BITMAP
E0
60
60
7E
66
66
66
66
FF
ENDCHAR

STARTCHAR i
ENCODING 105
SWIDTH 292 0
DWIDTH 4 0
BBX 4 9 -3 0
BITMAP
60
60
00
E0
60
60
60
60
F0
ENDCHAR

STARTCHAR j
ENCODING 106
SWIDTH 281 0
DWIDTH 4 0
BBX 5 12 -1 -3
BITMAP
18
18
00
38
18
18
18
18
18
18
D8
F0
ENDCHAR

STARTCHAR k
ENCODING 107
SWIDTH 542 0
DWIDTH 8 0
BBX 9 9 0 0
BITMAP
E000
6000
6000
6700
6400
7800
6C00
6700
F780
ENDCHAR

STARTCHAR l
ENCODING 108
SWIDTH 271 0
DWIDTH 4 0
BBX 4 9 0 0
BITMAP
60
E0
60
60
60
60
60
60
F0
ENDCHAR

STARTCHAR m
ENCODING 109
SWIDTH 927 0
DWIDTH 13 0
BBX 12 6 0 0
BITMAP
FFE0
6660
6660
6660
6660
FFF0
ENDCHAR

STARTCHAR n
ENCODING 110
SWIDTH 573 0
DWIDTH 8 0
BBX 8 6 0 0
BITMAP
FE
66
66
66
66
FF
ENDCHAR

STARTCHAR o
ENCODING 111
SWIDTH 573 0
DWIDTH 8 0
BBX 7 6 1 0
BITMAP
3C
4E
C6
C6
E6
78
ENDCHAR

STARTCHAR p
ENCODING 112
SWIDTH 573 0
DWIDTH 8 0
BBX 8 9 0 -3
BITMAP
FE
67
63
63
62
7C
60
60
F0
ENDCHAR

STARTCHAR q
ENCODING 113
SWIDTH 573 0
DWIDTH 8 0
BBX 8 9 0 -3
BITMAP
3A
46
C6
C6
E6
7E
06
06
0F
ENDCHAR

STARTCHAR r
ENCODING 114
SWIDTH 396 0
DWIDTH 6 0
BBX 6 6 0 0
BITMAP
FC
60
60
60
60
F0
ENDCHAR

STARTCHAR s
ENCODING 115
SWIDTH 375 0
DWIDTH 5 0
BBX 4 6 1 0
BITMAP
70
D0
E0
70
B0
F0
ENDCHAR

STARTCHAR t
ENCODING 116
SWIDTH 344 0
DWIDTH 5 0
BBX 5 7 1 0
BITMAP
20
F0
60
60
60
78
60
ENDCHAR

STARTCHAR u
ENCODING 117
SWIDTH 573 0
DWIDTH 8 0
BBX 7 6 1 0
BITMAP
DC
CC
CC
CC
CC
FE
ENDCHAR

STARTCHAR v
ENCODING 118
SWIDTH 521 0
DWIDTH 7 0
BBX 7 6 0 0
BITMAP
FE
64
64
38
38
10
ENDCHAR

STARTCHAR w
ENCODING 119
SWIDTH 781 0
DWIDTH 11 0
BBX 11 6 0 0
BITMAP
EEE0
6640
6640
3B80
3B80
1100
ENDCHAR

STARTCHAR x
ENCODING 120
SWIDTH 531 0
DWIDTH 7 0
BBX 7 6 0 0
BITMAP
EE
64
38
38
4C
EE
ENDCHAR

STARTCHAR y
ENCODING 121
SWIDTH 521 0
DWIDTH 7 0
BBX 7 9 0 -3
BITMAP
FE
64
64
38
38
10
10
60
60
ENDCHAR

STARTCHAR z
ENCODING 122
SWIDTH 510 0
DWIDTH 7 0
BBX 5 6 1 0
BITMAP
F8
B8
30
60
E8
F8
ENDCHAR

STARTCHAR braceleft
ENCODING 123
SWIDTH 396 0
DWIDTH 6 0
BBX 4 12 1 -3
BITMAP
30
60
60
60
60
C0
40
60
60
60
60
30
ENDCHAR

STARTCHAR bar
ENCODING 124
SWIDTH 566 0
DWIDTH 9 0
BBX 2 12 3 -3
BITMAP
C0
C0
C0
C0
C0
C0
C0
C0
C0
C0
C0
C0
ENDCHAR

STARTCHAR braceright
ENCODING 125
SWIDTH 396 0
DWIDTH 6 0
BBX 4 12 1 -3
BITMAP
C0
60
60
60
60
30
20
60
60
60
60
C0
ENDCHAR

STARTCHAR asciitilde
ENCODING 126
SWIDTH 521 0
DWIDTH 7 0
BBX 7 3 0 5
BITMAP
72
FE
8C
ENDCHAR

STARTCHAR exclamdown
ENCODING 161
SWIDTH 313 0
DWIDTH 4 0
BBX 2 9 1 -3
BITMAP
C0
C0
00
80
80
80
C0
C0
C0
ENDCHAR

STARTCHAR cent
ENCODING 162
SWIDTH 490 0
DWIDTH 7 0
BBX 5 10 1 -2
BITMAP
08
08
38
D8
D0
E0
E8
30
40
40
ENDCHAR

STARTCHAR sterling
ENCODING 163
SWIDTH 833 0
DWIDTH 12 0
BBX 11 12 0 -3
BITMAP
01E0
0360
0600
0600
0C00
0C00
1800
7F00
1060
3C20
4720
83C0
ENDCHAR

STARTCHAR currency
ENCODING 164
SWIDTH 667 0
DWIDTH 9 0
BBX 7 7 1 1
BITMAP
7C
FE
C6
C6
C6
FC
7E
ENDCHAR

STARTCHAR yen
ENCODING 165
SWIDTH 500 0
DWIDTH 7 0
BBX 8 9 0 0
BITMAP
F7
62
FF
F7
18
18
18
18
3C
ENDCHAR

STARTCHAR brokenbar
ENCODING 166
SWIDTH 566 0
DWIDTH 9 0
BBX 2 12 3 -3
BITMAP
C0
C0
C0
C0
C0
00
00
C0
C0
C0
C0
C0
ENDCHAR

STARTCHAR section
ENCODING 167
SWIDTH 469 0
DWIDTH 7 0
BBX 6 12 0 -3
BITMAP
3C
4C
C0
E0
B0
58
48
24
34
14
98
F0
ENDCHAR

STARTCHAR dieresis
ENCODING 168
SWIDTH 333 0
DWIDTH 5 0
BBX 5 2 0 7
BITMAP
D8
D8
ENDCHAR

STARTCHAR copyright
ENCODING 169
SWIDTH 750 0
DWIDTH 11 0
BBX 10 9 0 0
BITMAP
1E00
7F80
7180
B040
B040
B940
5E80
6180
1E00
ENDCHAR

STARTCHAR ordfeminine
ENCODING 170
SWIDTH 365 0
DWIDTH 5 0
BBX 4 4 0 5
BITMAP
E0
A0
E0
F0
ENDCHAR

STARTCHAR guillemotleft
ENCODING 171
SWIDTH 427 0
DWIDTH 6 0
BBX 5 5 0 1
BITMAP
A0
50
58
50
A0
ENDCHAR

STARTCHAR logicalnot
ENCODING 172
SWIDTH 667 0
DWIDTH 9 0
BBX 7 4 1 2
BITMAP
FE
02
02
02
ENDCHAR

STARTCHAR hyphen
ENCODING 173
SWIDTH 417 0
DWIDTH 6 0
BBX 5 2 0 2
BITMAP
F8
F8
ENDCHAR

STARTCHAR registered
ENCODING 174
SWIDTH 750 0
DWIDTH 11 0
BBX 10 9 0 0
BITMAP
1E00
7F80
5B80
9F40
9E40
9A40
7F80
6180
1E00
ENDCHAR

STARTCHAR macron
ENCODING 175
SWIDTH 333 0
DWIDTH 5 0
BBX 4 1 0 8
BITMAP
F0
ENDCHAR

STARTCHAR degree
ENCODING 176
SWIDTH 396 0
DWIDTH 6 0
BBX 5 4 0 5
BITMAP
70
88
88
70
ENDCHAR

STARTCHAR plusminus
ENCODING 177
SWIDTH 668 0
DWIDTH 9 0
BBX 7 10 1 -1
BITMAP
10
10
10
FE
10
10
10
10
00
FE
ENDCHAR

STARTCHAR twosuperior
ENCODING 178
SWIDTH 313 0
DWIDTH 4 0
BBX 3 6 -4 3
BITMAP
E0
A0
20
20
60
E0
ENDCHAR

STARTCHAR threesuperior
ENCODING 179
SWIDTH 302 0
DWIDTH 4 0
BBX 3 6 -3 3
BITMAP
60
A0
60
20
20
C0
ENDCHAR

STARTCHAR acute
ENCODING 180
SWIDTH 333 0
DWIDTH 5 0
BBX 3 3 1 6
BITMAP
60
C0
80
ENDCHAR

STARTCHAR mu
ENCODING 181
SWIDTH 552 0
DWIDTH 8 0
BBX 8 10 0 -3
BITMAP
66
66
66
66
66
67
7E
40
C0
C0
ENDCHAR

STARTCHAR paragraph
ENCODING 182
SWIDTH 542 0
DWIDTH 8 0
BBX 7 12 0 -3
BITMAP
7E
F4
F4
F4
F4
74
14
14
14
14
14
14
ENDCHAR

STARTCHAR periodcentered
ENCODING 183
SWIDTH 313 0
DWIDTH 4 0
BBX 2 2 1 4
BITMAP
C0
C0
ENDCHAR

STARTCHAR cedilla
ENCODING 184
SWIDTH 333 0
DWIDTH 5 0
BBX 3 3 1 -3
BITMAP
40
20
E0
ENDCHAR

STARTCHAR onesuperior
ENCODING 185
SWIDTH 313 0
DWIDTH 4 0
BBX 3 6 -4 3
BITMAP
C0
40
40
40
40
E0
ENDCHAR

STARTCHAR ordmasculine
ENCODING 186
SWIDTH 375 0
DWIDTH 5 0
BBX 4 4 1 5
BITMAP
60
90
90
60
ENDCHAR

STARTCHAR guillemotright
ENCODING 187
SWIDTH 427 0
DWIDTH 6 0
BBX 5 5 0 1
BITMAP
28
50
D0
50
28
ENDCHAR

STARTCHAR onequarter
ENCODING 188
SWIDTH 823 0
DWIDTH 11 0
BBX 11 9 2 0
BITMAP
C080
4100
4300
4240
44C0
ECC0
0940
11E0
2040
ENDCHAR

STARTCHAR onehalf
ENCODING 189
SWIDTH 823 0
DWIDTH 11 0
BBX 10 9 2 0
BITMAP
C080
4100
4300
43C0
4540
EC40
0840
10C0
21C0
ENDCHAR

STARTCHAR threequarters
ENCODING 190
SWIDTH 823 0
DWIDTH 11 0
BBX 11 9 2 0
BITMAP
6080
A100
6300
2240
24C0
CCC0
0940
11E0
2040
ENDCHAR

STARTCHAR questiondown
ENCODING 191
SWIDTH 365 0
DWIDTH 5 0
BBX 3 10 1 -3
BITMAP
60
60
00
20
60
E0
80
80
E0
60
ENDCHAR

STARTCHAR Agrave
ENCODING 192
SWIDTH 740 0
DWIDTH 10 0
BBX 10 13 0 0
BITMAP
1800
0C00
0400
0000
0C00
1E00
1600
1600
3F00
2300
6180
4180
F3C0
ENDCHAR

STARTCHAR Aacute
ENCODING 193
SWIDTH 740 0
DWIDTH 10 0
BBX 10 13 0 0
BITMAP
0600
0C00
0800
0000
0C00
1E00
1600
1600
3F00
2300
6180
4180
F3C0
ENDCHAR

STARTCHAR Acircumflex
ENCODING 194
SWIDTH 740 0
DWIDTH 10 0
BBX 10 12 0 0
BITMAP
0C00
1A00
0000
0C00
1E00
1600
1600
3F00
2300
6180
4180
F3C0
ENDCHAR

STARTCHAR Atilde
ENCODING 195
SWIDTH 740 0
DWIDTH 10 0
BBX 10 12 0 0
BITMAP
3E00
3E00
0000
0C00
1E00
1600
1600
3F00
2300
6180
4180
F3C0
ENDCHAR

STARTCHAR Adieresis
ENCODING 196
SWIDTH 740 0
DWIDTH 10 0
BBX 10 12 0 0
BITMAP
1B00
1B00
0000
0C00
1E00
1600
1600
3F00
2300
6180
4180
F3C0
ENDCHAR

STARTCHAR Aring
ENCODING 197
SWIDTH 740 0
DWIDTH 10 0
BBX 10 13 0 0
BITMAP
0E00
0A00
0E00
0000
0C00
1E00
1600
1600
3F00
2300
6180
4180
F3C0
ENDCHAR

STARTCHAR AE
ENCODING 198
SWIDTH 896 0
DWIDTH 13 0
BBX 11 9 0 0
BITMAP
1FE0
0E20
1E00
1640
37C0
3E40
2600
4620
EFE0
ENDCHAR

STARTCHAR Ccedilla
ENCODING 199
SWIDTH 740 0
DWIDTH 10 0
BBX 9 12 1 -3
BITMAP
1F80
6180
4080
C000
C000
C000
6080
7180
1F80
0800
0400
1C00
ENDCHAR

STARTCHAR Egrave
ENCODING 200
SWIDTH 646 0
DWIDTH 9 0
BBX 8 13 0 0
BITMAP
30
18
08
00
FF
61
60
62
7E
62
60
61
FF
ENDCHAR

STARTCHAR Eacute
ENCODING 201
SWIDTH 646 0
DWIDTH 9 0
BBX 8 13 0 0
BITMAP
0C
18
10
00
FF
61
60
62
7E
62
60
61
FF
ENDCHAR

STARTCHAR Ecircumflex
ENCODING 202
SWIDTH 646 0
DWIDTH 9 0
BBX 8 12 0 0
BITMAP
18
34
00
FF
61
60
62
7E
62
60
61
FF
ENDCHAR

STARTCHAR Edieresis
ENCODING 203
SWIDTH 646 0
DWIDTH 9 0
BBX 8 12 0 0
BITMAP
36
36
00
FF
61
60
62
7E
62
60
61
FF
ENDCHAR

STARTCHAR Igrave
ENCODING 204
SWIDTH 365 0
DWIDTH 5 0
BBX 4 13 1 0
BITMAP
C0
60
20
00
F0
60
60
60
60
60
60
60
F0
ENDCHAR

STARTCHAR Iacute
ENCODING 205
SWIDTH 365 0
DWIDTH 5 0
BBX 4 13 1 0
BITMAP
30
60
40
00
F0
60
60
60
60
60
60
60
F0
ENDCHAR

STARTCHAR Icircumflex
ENCODING 206
SWIDTH 365 0
DWIDTH 5 0
BBX 4 12 1 0
BITMAP
60
D0
00
F0
60
60
60
60
60
60
60
F0
ENDCHAR

STARTCHAR Idieresis
ENCODING 207
SWIDTH 365 0
DWIDTH 5 0
BBX 5 12 2 0
BITMAP
D8
D8
00
78
30
30
30
30
30
30
30
78
ENDCHAR

STARTCHAR Eth
ENCODING 208
SWIDTH 823 0
DWIDTH 12 0
BBX 10 9 0 0
BITMAP
FE00
6380
61C0
60C0
F8C0
60C0
61C0
6380
FE00
ENDCHAR

STARTCHAR Ntilde
ENCODING 209
SWIDTH 813 0
DWIDTH 11 0
BBX 10 12 1 0
BITMAP
3E00
3E00
0000
E1C0
7080
7880
5C80
4E80
4780
4380
4180
E080
ENDCHAR

STARTCHAR Ograve
ENCODING 210
SWIDTH 844 0
DWIDTH 12 0
BBX 10 13 1 0
BITMAP
1800
0C00
0400
0000
1F00
6380
41C0
C0C0
C0C0
C0C0
E0C0
7180
3E00
ENDCHAR

STARTCHAR Oacute
ENCODING 211
SWIDTH 844 0
DWIDTH 12 0
BBX 10 13 1 0
BITMAP
0600
0C00
0800
0000
1F00
6380
41C0
C0C0
C0C0
C0C0
E0C0
7180
3E00
ENDCHAR

STARTCHAR Ocircumflex
ENCODING 212
SWIDTH 844 0
DWIDTH 12 0
BBX 10 12 1 0
BITMAP
0C00
1A00
0000
1F00
6380
41C0
C0C0
C0C0
C0C0
E0C0
7180
3E00
ENDCHAR

STARTCHAR Otilde
ENCODING 213
SWIDTH 844 0
DWIDTH 12 0
BBX 10 12 1 0
BITMAP
3E00
3E00
0000
1F00
6380
41C0
C0C0
C0C0
C0C0
E0C0
7180
3E00
ENDCHAR

STARTCHAR Odieresis
ENCODING 214
SWIDTH 844 0
DWIDTH 12 0
BBX 10 12 1 0
BITMAP
3600
3600
0000
1F00
6380
41C0
C0C0
C0C0
C0C0
E0C0
7180
3E00
ENDCHAR

STARTCHAR multiply
ENCODING 215
SWIDTH 667 0
DWIDTH 9 0
BBX 7 8 1 1
BITMAP
82
C6
6C
38
38
6C
C6
82
ENDCHAR

STARTCHAR Oslash
ENCODING 216
SWIDTH 844 0
DWIDTH 12 0
BBX 10 10 1 0
BITMAP
0040
1F80
6380
43C0
C6C0
CCC0
C8C0
F0C0
7180
7E00
ENDCHAR

STARTCHAR Ugrave
ENCODING 217
SWIDTH 771 0
DWIDTH 11 0
BBX 10 13 0 0
BITMAP
1800
0C00
0400
0000
F1C0
6080
6080
6080
6080
6080
6080
7100
3E00
ENDCHAR

STARTCHAR Uacute
ENCODING 218
SWIDTH 771 0
DWIDTH 11 0
BBX 10 13 0 0
BITMAP
0600
0C00
0800
0000
F1C0
6080
6080
6080
6080
6080
6080
7100
3E00
ENDCHAR

STARTCHAR Ucircumflex
ENCODING 219
SWIDTH 771 0
DWIDTH 11 0
BBX 10 12 0 0
BITMAP
0C00
1A00
0000
F1C0
6080
6080
6080
6080
6080
6080
7100
3E00
ENDCHAR

STARTCHAR Udieresis
ENCODING 220
SWIDTH 771 0
DWIDTH 11 0
BBX 10 12 0 0
BITMAP
3600
3600
0000
F1C0
6080
6080
6080
6080
6080
6080
7100
3E00
ENDCHAR

STARTCHAR Yacute
ENCODING 221
SWIDTH 750 0
DWIDTH 11 0
BBX 10 13 0 0
BITMAP
0600
0C00
0800
0000
F1C0
6080
3100
3B00
1E00
0C00
0C00
0C00
1E00
ENDCHAR

STARTCHAR Thorn
ENCODING 222
SWIDTH 646 0
DWIDTH 9 0
BBX 8 9 0 0
BITMAP
F0
60
7E
63
63
63
7E
60
F0
ENDCHAR

STARTCHAR germandbls
ENCODING 223
SWIDTH 563 0
DWIDTH 8 0
BBX 8 9 0 0
BITMAP
3E
63
66
66
63
63
63
63
F6
ENDCHAR

STARTCHAR agrave
ENCODING 224
SWIDTH 479 0
DWIDTH 7 0
BBX 6 10 1 0
BITMAP
60
30
10
00
70
D8
18
78
D8
FC
ENDCHAR

STARTCHAR aacute
ENCODING 225
SWIDTH 479 0
DWIDTH 7 0
BBX 6 10 1 0
BITMAP
18
30
20
00
70
D8
18
78
D8
FC
ENDCHAR

STARTCHAR acircumflex
ENCODING 226
SWIDTH 479 0
DWIDTH 7 0
BBX 6 9 1 0
BITMAP
30
68
00
70
D8
18
78
D8
FC
ENDCHAR

STARTCHAR atilde
ENCODING 227
SWIDTH 479 0
DWIDTH 7 0
BBX 6 9 1 0
BITMAP
F8
F8
00
70
D8
18
78
D8
FC
ENDCHAR

STARTCHAR adieresis
ENCODING 228
SWIDTH 479 0
DWIDTH 7 0
BBX 6 9 1 0
BITMAP
D8
D8
00
70
D8
18
78
D8
FC
ENDCHAR

STARTCHAR aring
ENCODING 229
SWIDTH 479 0
DWIDTH 7 0
BBX 6 10 1 0
BITMAP
70
50
70
00
70
D8
18
78
D8
FC
ENDCHAR

STARTCHAR ae
ENCODING 230
SWIDTH 698 0
DWIDTH 10 0
BBX 8 6 1 0
BITMAP
7E
D9
1F
78
D9
EE
ENDCHAR

STARTCHAR ccedilla
ENCODING 231
SWIDTH 490 0
DWIDTH 7 0
BBX 6 9 1 -3
BITMAP
3C
4C
C0
C0
E4
78
20
10
70
ENDCHAR

STARTCHAR egrave
ENCODING 232
SWIDTH 479 0
DWIDTH 7 0
BBX 6 10 0 0
BITMAP
60
30
10
00
38
CC
FC
C0
E4
78
ENDCHAR

STARTCHAR eacute
ENCODING 233
SWIDTH 479 0
DWIDTH 7 0
BBX 6 10 0 0
BITMAP
18
30
20
00
38
CC
FC
C0
E4
78
ENDCHAR

STARTCHAR ecircumflex
ENCODING 234
SWIDTH 479 0
DWIDTH 7 0
BBX 6 9 0 0
BITMAP
30
68
00
38
CC
FC
C0
E4
78
ENDCHAR

STARTCHAR edieresis
ENCODING 235
SWIDTH 479 0
DWIDTH 7 0
BBX 6 9 0 0
BITMAP
D8
D8
00
38
CC
FC
C0
E4
78
ENDCHAR

STARTCHAR igrave
ENCODING 236
SWIDTH 292 0
DWIDTH 4 0
BBX 4 10 0 0
BITMAP
C0
60
20
00
E0
60
60
60
60
F0
ENDCHAR

STARTCHAR iacute
ENCODING 237
SWIDTH 292 0
DWIDTH 4 0
BBX 4 10 0 0
BITMAP
30
60
40
00
E0
60
60
60
60
F0
ENDCHAR

STARTCHAR icircumflex
ENCODING 238
SWIDTH 292 0
DWIDTH 4 0
BBX 4 9 0 0
BITMAP
60
D0
00
E0
60
60
60
60
F0
ENDCHAR

STARTCHAR idieresis
ENCODING 239
SWIDTH 292 0
DWIDTH 4 0
BBX 5 9 0 0
BITMAP
D8
D8
00
E0
60
60
60
60
F0
ENDCHAR

STARTCHAR eth
ENCODING 240
SWIDTH 563 0
DWIDTH 8 0
BBX 7 9 0 0
BITMAP
3C
38
6C
7E
4E
C6
C6
E6
78
ENDCHAR

STARTCHAR ntilde
ENCODING 241
SWIDTH 573 0
DWIDTH 8 0
BBX 8 9 0 0
BITMAP
7C
7C
00
FE
66
66
66
66
FF
ENDCHAR

STARTCHAR ograve
ENCODING 242
SWIDTH 573 0
DWIDTH 8 0
BBX 7 10 1 0
BITMAP
60
30
10
00
3C
4E
C6
C6
E6
78
ENDCHAR

STARTCHAR oacute
ENCODING 243
SWIDTH 573 0
DWIDTH 8 0
BBX 7 10 1 0
BITMAP
0C
18
10
00
3C
4E
C6
C6
E6
78
ENDCHAR

STARTCHAR ocircumflex
ENCODING 244
SWIDTH 573 0
DWIDTH 8 0
BBX 7 9 1 0
BITMAP
30
68
00
3C
4E
C6
C6
E6
78
ENDCHAR

STARTCHAR otilde
ENCODING 245
SWIDTH 573 0
DWIDTH 8 0
BBX 7 9 1 0
BITMAP
7C
7C
00
3C
4E
C6
C6
E6
78
ENDCHAR

STARTCHAR odieresis
ENCODING 246
SWIDTH 573 0
DWIDTH 8 0
BBX 7 9 1 0
BITMAP
6C
6C
00
3C
4E
C6
C6
E6
78
ENDCHAR

STARTCHAR divide
ENCODING 247
SWIDTH 668 0
DWIDTH 9 0
BBX 8 7 1 1
BITMAP
18
18
00
FF
00
18
18
ENDCHAR

STARTCHAR oslash
ENCODING 248
SWIDTH 573 0
DWIDTH 8 0
BBX 7 7 1 0
BITMAP
02
3E
4E
DE
D6
E6
78
ENDCHAR

STARTCHAR ugrave
ENCODING 249
SWIDTH 573 0
DWIDTH 8 0
BBX 7 10 1 0
BITMAP
60
30
10
00
DC
CC
CC
CC
CC
FE
ENDCHAR

STARTCHAR uacute
ENCODING 250
SWIDTH 573 0
DWIDTH 8 0
BBX 7 10 1 0
BITMAP
18
30
20
00
DC
CC
CC
CC
CC
FE
ENDCHAR

STARTCHAR ucircumflex
ENCODING 251
SWIDTH 573 0
DWIDTH 8 0
BBX 7 9 1 0
BITMAP
30
68
00
DC
CC
CC
CC
CC
FE
ENDCHAR

STARTCHAR udieresis
ENCODING 252
SWIDTH 573 0
DWIDTH 8 0
BBX 7 9 1 0
BITMAP
6C
6C
00
DC
CC
CC
CC
CC
FE
ENDCHAR

STARTCHAR yacute
ENCODING 253
SWIDTH 521 0
DWIDTH 7 0
BBX 7 13 0 -3
BITMAP
0C
18
10
00
FE
64
64
38
38
10
10
60
60
ENDCHAR

STARTCHAR thorn
ENCODING 254
SWIDTH 573 0
DWIDTH 8 0
BBX 8 12 0 -3
BITMAP
E0
60
60
7E
67
63
63
62
7C
60
60
F0
ENDCHAR

STARTCHAR ydieresis
ENCODING 255
SWIDTH 521 0
DWIDTH 7 0
BBX 7 12 0 -3
BITMAP
6C
6C
00
FE
64
64
38
38
10
10
60
60
ENDCHAR
ENDFONT
